<?xml version="1.0" encoding="UTF-8" standalone="no"?>
<!-- Created with Inkscape (http://www.inkscape.org/) -->

<svg
   xmlns:dc="http://purl.org/dc/elements/1.1/"
   xmlns:cc="http://creativecommons.org/ns#"
   xmlns:rdf="http://www.w3.org/1999/02/22-rdf-syntax-ns#"
   xmlns:svg="http://www.w3.org/2000/svg"
   xmlns="http://www.w3.org/2000/svg"
   xmlns:sodipodi="http://sodipodi.sourceforge.net/DTD/sodipodi-0.dtd"
   xmlns:inkscape="http://www.inkscape.org/namespaces/inkscape"
   width="158.75mm"
   height="158.75mm"
   viewBox="0 0 158.75 158.75"
   version="1.1"
   id="svg2125"
   inkscape:version="0.92.4 (33fec40, 2019-01-16)"
   sodipodi:docname="logoplaceholder.svg">
  <defs
     id="defs2119" />
  <sodipodi:namedview
     id="base"
     pagecolor="#ffffff"
     bordercolor="#666666"
     borderopacity="1.0"
     inkscape:pageopacity="0.0"
     inkscape:pageshadow="2"
     inkscape:zoom="0.35"
     inkscape:cx="-195.71428"
     inkscape:cy="189.99997"
     inkscape:document-units="mm"
     inkscape:current-layer="layer1"
     showgrid="false"
     inkscape:window-width="1600"
     inkscape:window-height="871"
     inkscape:window-x="1920"
     inkscape:window-y="0"
     inkscape:window-maximized="1" />
  <metadata
     id="metadata2122">
    <rdf:RDF>
      <cc:Work
         rdf:about="">
        <dc:format>image/svg+xml</dc:format>
        <dc:type
           rdf:resource="http://purl.org/dc/dcmitype/StillImage" />
        <dc:title></dc:title>
      </cc:Work>
    </rdf:RDF>
  </metadata>
  <g
     inkscape:label="Layer 1"
     inkscape:groupmode="layer"
     id="layer1"
     transform="translate(-19.276785,-40.354162)">
    <rect
       style="opacity:0.98999999;fill:#a399df;fill-opacity:0.94117647;stroke:#fffff0;stroke-width:0.11358259;stroke-linecap:round;stroke-linejoin:round;stroke-miterlimit:4;stroke-dasharray:none;stroke-dashoffset:0;stroke-opacity:1"
       id="rect2670"
       width="158.63641"
       height="158.63641"
       x="19.333576"
       y="40.410954" />
    <g
       aria-label="Placeholder
    Logo"
       transform="matrix(9.1270722,0,0,9.2299504,-744.43391,-1764.6802)"
       style="font-style:normal;font-variant:normal;font-weight:normal;font-stretch:normal;font-size:2.66666675px;line-height:1.25;font-family:Prime;-inkscape-font-specification:Prime;letter-spacing:0px;word-spacing:0px;fill:#000000;fill-opacity:1;stroke:none"
       id="flowRoot2680">
      <path
         d="m 86.864177,200.33333 h -0.912 c -0.04267,0 -0.07733,0.0347 -0.07733,0.0773 v 1.92266 h 0.109333 c 0.016,0 0.02933,-0.0133 0.02933,-0.0293 v -0.89867 c 0.008,0.024 0.03733,0.0427 0.07467,0.0427 h 0.776 c 0.232,0 0.418667,-0.18667 0.418667,-0.41867 V 200.752 c 0,-0.232 -0.186667,-0.41867 -0.418667,-0.41867 z m 0.28,0.72 c 0,0.15467 -0.125333,0.28 -0.28,0.28 H 86.06151 c -0.02667,0 -0.048,-0.0213 -0.048,-0.048 v -0.808 c 0,-0.016 0.01333,-0.0293 0.02933,-0.0293 h 0.821333 c 0.154667,0 0.28,0.12533 0.28,0.28 z"
         style=""
         id="path2690" />
      <path
         d="m 87.522874,202.304 c 0,0.016 0.01333,0.0267 0.02933,0.0267 h 0.09067 V 200.472 c 0,-0.016 -0.01333,-0.0293 -0.02933,-0.0293 h -0.09067 z"
         style=""
         id="path2692" />
      <path
         d="m 88.624244,200.99733 h -0.584 v 0.0827 c 0,0.016 0.01333,0.0293 0.02667,0.0293 h 0.557334 c 0.117333,0 0.210666,0.096 0.210666,0.21334 v 0.17333 c -0.0027,0.0187 -0.01333,0.0293 -0.02933,0.0293 h -0.549333 c -0.184,0 -0.330667,0.14934 -0.330667,0.336 V 202 c 0,0.184 0.146667,0.33333 0.330667,0.33333 h 0.669333 c 0.016,0 0.02933,-0.0133 0.02933,-0.0293 v -0.97067 c 0,-0.184 -0.146666,-0.336 -0.330666,-0.336 z m -0.368,1.21867 c -0.117334,0 -0.210667,-0.0933 -0.210667,-0.21067 v -0.15466 c 0,-0.11734 0.09333,-0.21334 0.210667,-0.21334 h 0.557333 c 0.008,0 0.016,-0.005 0.02133,-0.0107 v 0.58933 z"
         style=""
         id="path2694" />
      <path
         d="m 89.25089,202 c 0,0.184 0.146667,0.33333 0.330667,0.33333 h 0.546666 v -0.0827 c 0,-0.016 -0.01067,-0.0293 -0.02667,-0.0293 h -0.52 c -0.117334,0 -0.210667,-0.0933 -0.210667,-0.21066 v -0.68534 c 0,-0.11733 0.09333,-0.21333 0.210667,-0.21333 h 0.52 c 0.016,0 0.02667,-0.0133 0.02667,-0.0293 v -0.08 h -0.546666 c -0.184,0 -0.330667,0.14933 -0.330667,0.33333 z"
         style=""
         id="path2696" />
      <path
         d="m 90.760198,202.33333 h 0.714667 v -0.0853 c 0,-0.016 -0.01333,-0.0293 -0.02933,-0.0293 h -0.685333 c -0.117333,0 -0.210667,-0.0933 -0.210667,-0.21067 v -0.32533 h 0.0027 c 0.01333,0.0187 0.03467,0.032 0.05867,0.032 h 0.856 c 0.016,0 0.02933,-0.0133 0.02933,-0.032 V 201.32 c 0,-0.2 -0.141333,-0.32 -0.322667,-0.32 h -0.421333 c -0.181333,0 -0.322667,0.12 -0.322667,0.32 v 0.69067 c 0,0.20266 0.146667,0.32266 0.330667,0.32266 z m -0.008,-1.224 h 0.421333 c 0.114667,0 0.202667,0.096 0.202667,0.21334 v 0.28 h -0.797333 c -0.01867,-0.003 -0.02933,-0.0133 -0.02933,-0.0293 v -0.25066 c 0,-0.11734 0.088,-0.21334 0.202667,-0.21334 z"
         style=""
         id="path2698" />
      <path
         d="m 92.512207,201 h -0.488 c -0.04,0 -0.07467,0.0213 -0.07733,0.0507 V 200.36 c 0,-0.016 -0.01333,-0.0293 -0.02933,-0.0293 h -0.09333 v 2.00266 h 0.088 c 0.02133,0 0.03467,-0.016 0.03467,-0.0347 v -1.14134 c 0,-0.024 0.02133,-0.0453 0.048,-0.0453 h 0.517334 c 0.117333,0 0.213333,0.0933 0.213333,0.21067 v 0.976 c 0,0.0187 0.01333,0.0347 0.03467,0.0347 h 0.08533 v -1 c 0,-0.184 -0.149333,-0.33333 -0.333333,-0.33333 z"
         style=""
         id="path2700" />
      <path
         d="m 93.482892,202.352 h 0.402667 c 0.181333,0 0.328,-0.14933 0.328,-0.33333 v -0.70134 c 0,-0.184 -0.146667,-0.336 -0.328,-0.336 h -0.402667 c -0.184,0 -0.330667,0.152 -0.330667,0.336 v 0.70134 c 0,0.184 0.146667,0.33333 0.330667,0.33333 z m 0,-1.25867 h 0.402667 c 0.114666,0 0.208,0.096 0.208,0.21334 v 0.72266 c 0,0.11734 -0.09333,0.21067 -0.208,0.21067 h -0.402667 c -0.117333,0 -0.210667,-0.0933 -0.210667,-0.21067 v -0.72266 c 0,-0.11734 0.09333,-0.21334 0.210667,-0.21334 z"
         style=""
         id="path2702" />
      <path
         d="m 94.64822,202.304 c 0,0.016 0.01333,0.0267 0.02933,0.0267 h 0.09067 V 200.472 c 0,-0.016 -0.01333,-0.0293 -0.02933,-0.0293 h -0.09067 z"
         style=""
         id="path2704" />
      <path
         d="m 96.034923,200.33333 c -0.016,0 -0.02933,0.0133 -0.02933,0.0293 v 0.688 C 96.002923,201.02133 95.968256,201 95.930923,201 h -0.52 c -0.184,0 -0.330667,0.14933 -0.330667,0.33333 V 202 c 0,0.184 0.146667,0.33333 0.330667,0.33333 h 0.685333 c 0.016,0 0.02933,-0.0133 0.02933,-0.0293 v -1.97067 z m -0.624,1.888 c -0.117334,0 -0.210667,-0.0933 -0.210667,-0.21066 v -0.688 c 0,-0.11734 0.09333,-0.21334 0.210667,-0.21334 h 0.549333 c 0.024,0.003 0.04267,0.0213 0.04533,0.048 v 1.064 z"
         style=""
         id="path2706" />
      <path
         d="m 96.778936,202.33333 h 0.714666 v -0.0853 c 0,-0.016 -0.01333,-0.0293 -0.02933,-0.0293 h -0.685333 c -0.117334,0 -0.210667,-0.0933 -0.210667,-0.21067 v -0.32533 h 0.0027 c 0.01333,0.0187 0.03467,0.032 0.05867,0.032 h 0.856 c 0.016,0 0.02933,-0.0133 0.02933,-0.032 V 201.32 c 0,-0.2 -0.141334,-0.32 -0.322667,-0.32 h -0.421333 c -0.181334,0 -0.322667,0.12 -0.322667,0.32 v 0.69067 c 0,0.20266 0.146667,0.32266 0.330667,0.32266 z m -0.008,-1.224 h 0.421333 c 0.114667,0 0.202667,0.096 0.202667,0.21334 v 0.28 h -0.797334 c -0.01867,-0.003 -0.02933,-0.0133 -0.02933,-0.0293 v -0.25066 c 0,-0.11734 0.088,-0.21334 0.202667,-0.21334 z"
         style=""
         id="path2708" />
      <path
         d="m 97.840278,201 v 1.33333 h 0.12 v -1.032 c 0,0 -0.0053,-0.192 0.181333,-0.192 h 0.328 c 0.016,0 0.02933,-0.0107 0.02933,-0.0267 V 201 h -0.304 c -0.181334,0 -0.234667,0.088 -0.234667,0.088 V 201 Z"
         style=""
         id="path2710" />
      <path
         d="m 89.608242,205.24266 c 0,0.23467 0.189334,0.424 0.421334,0.424 h 0.858666 v -0.0853 c 0,-0.016 -0.01333,-0.0293 -0.02933,-0.0293 h -0.829333 c -0.154667,0 -0.282667,-0.128 -0.282667,-0.28533 v -1.60267 h -0.109333 c -0.016,0 -0.02933,0.0133 -0.02933,0.0293 z"
         style=""
         id="path2712" />
      <path
         d="m 91.426903,205.68533 h 0.402666 c 0.181334,0 0.328,-0.14934 0.328,-0.33334 v -0.70133 c 0,-0.184 -0.146666,-0.336 -0.328,-0.336 h -0.402666 c -0.184,0 -0.330667,0.152 -0.330667,0.336 v 0.70133 c 0,0.184 0.146667,0.33334 0.330667,0.33334 z m 0,-1.25867 h 0.402666 c 0.114667,0 0.208,0.096 0.208,0.21333 v 0.72267 c 0,0.11733 -0.09333,0.21067 -0.208,0.21067 h -0.402666 c -0.117334,0 -0.210667,-0.0933 -0.210667,-0.21067 v -0.72267 c 0,-0.11733 0.09333,-0.21333 0.210667,-0.21333 z"
         style=""
         id="path2714" />
      <path
         d="m 93.450898,204.33066 h -0.653333 c -0.184,0 -0.330667,0.152 -0.330667,0.336 v 0.664 c 0,0.184 0.146667,0.336 0.330667,0.336 l 0.490666,-0.003 c 0.03467,0 0.06133,-0.0133 0.072,-0.0373 v 0.368 c 0,0.11733 -0.09333,0.20533 -0.210666,0.20533 h -0.6 c -0.01333,0 -0.02667,0.0133 -0.02667,0.0293 v 0.088 h 0.626667 c 0.184,0 0.330666,-0.14934 0.330666,-0.336 v -1.61867 c 0,-0.0187 -0.01333,-0.032 -0.02933,-0.032 z m -0.653333,1.224 c -0.117334,0 -0.210667,-0.096 -0.210667,-0.21333 v -0.68534 c 0,-0.11733 0.09333,-0.21333 0.210667,-0.21333 h 0.562666 v 1.064 c 0,0.0267 -0.02133,0.048 -0.048,0.048 z"
         style=""
         id="path2716" />
      <path
         d="m 94.122866,205.68533 h 0.402667 c 0.181333,0 0.328,-0.14934 0.328,-0.33334 v -0.70133 c 0,-0.184 -0.146667,-0.336 -0.328,-0.336 h -0.402667 c -0.184,0 -0.330667,0.152 -0.330667,0.336 v 0.70133 c 0,0.184 0.146667,0.33334 0.330667,0.33334 z m 0,-1.25867 h 0.402667 c 0.114666,0 0.208,0.096 0.208,0.21333 v 0.72267 c 0,0.11733 -0.09333,0.21067 -0.208,0.21067 h -0.402667 c -0.117333,0 -0.210667,-0.0933 -0.210667,-0.21067 v -0.72267 c 0,-0.11733 0.09333,-0.21333 0.210667,-0.21333 z"
         style=""
         id="path2718" />
    </g>
  </g>
</svg>
