<?xml version="1.0" encoding="UTF-8" standalone="no"?>
<!-- Created with Inkscape (http://www.inkscape.org/) -->

<svg
   xmlns:dc="http://purl.org/dc/elements/1.1/"
   xmlns:cc="http://creativecommons.org/ns#"
   xmlns:rdf="http://www.w3.org/1999/02/22-rdf-syntax-ns#"
   xmlns:svg="http://www.w3.org/2000/svg"
   xmlns="http://www.w3.org/2000/svg"
   xmlns:sodipodi="http://sodipodi.sourceforge.net/DTD/sodipodi-0.dtd"
   xmlns:inkscape="http://www.inkscape.org/namespaces/inkscape"
   width="38.099998mm"
   height="38.100002mm"
   viewBox="0 0 38.099998 38.100002"
   version="1.1"
   id="svg1542"
   inkscape:version="0.92.4 (33fec40, 2019-01-16)"
   sodipodi:docname="code.svg">
  <defs
     id="defs1536" />
  <sodipodi:namedview
     id="base"
     pagecolor="#ffffff"
     bordercolor="#666666"
     borderopacity="1.0"
     inkscape:pageopacity="0.0"
     inkscape:pageshadow="2"
     inkscape:zoom="1.979899"
     inkscape:cx="90.293387"
     inkscape:cy="54.985718"
     inkscape:document-units="mm"
     inkscape:current-layer="layer1"
     showgrid="false"
     inkscape:window-width="1600"
     inkscape:window-height="871"
     inkscape:window-x="1920"
     inkscape:window-y="0"
     inkscape:window-maximized="1" />
  <metadata
     id="metadata1539">
    <rdf:RDF>
      <cc:Work
         rdf:about="">
        <dc:format>image/svg+xml</dc:format>
        <dc:type
           rdf:resource="http://purl.org/dc/dcmitype/StillImage" />
        <dc:title></dc:title>
      </cc:Work>
    </rdf:RDF>
  </metadata>
  <g
     inkscape:label="Layer 1"
     inkscape:groupmode="layer"
     id="layer1"
     transform="translate(-16.782145,-100.34576)">
    <g
       aria-label="&lt; &gt;"
       transform="matrix(16.687741,0,0,27.475961,-1558.7767,-11213.93)"
       style="font-style:normal;font-variant:normal;font-weight:normal;font-stretch:normal;font-size:2.66666675px;line-height:1.25;font-family:Prime;-inkscape-font-specification:Prime;letter-spacing:0px;word-spacing:0px;fill:#fffff0;fill-opacity:0.94117647;stroke:none"
       id="flowRoot2087">
      <path
         d="m 94.399823,412.5318 c 0,0.0187 0.01067,0.0373 0.02667,0.048 l 0.661333,0.36 v -0.10667 c 0,-0.016 -0.01067,-0.0373 -0.02667,-0.0453 l -0.570666,-0.296 0.570666,-0.304 c 0.016,-0.008 0.02667,-0.0267 0.02667,-0.0453 v -0.104 l -0.661333,0.36267 c -0.016,0.008 -0.02667,0.0293 -0.02667,0.0453 z"
         style="letter-spacing:-0.00013199px;word-spacing:-0.32193351px;fill:#fffff0;fill-opacity:0.94117647"
         id="path2114" />
      <path
         d="m 96.682936,412.5318 v -0.0853 c 0,-0.016 -0.01067,-0.0373 -0.02667,-0.0453 l -0.661333,-0.36267 v 0.104 c 0,0.0187 0.01067,0.0373 0.02667,0.0453 l 0.570666,0.304 -0.570666,0.296 c -0.016,0.008 -0.02667,0.0293 -0.02667,0.0453 v 0.10667 l 0.661333,-0.36 c 0.016,-0.0107 0.02667,-0.0293 0.02667,-0.048 z"
         style="letter-spacing:-0.00013199px;word-spacing:-0.32193351px;fill:#fffff0;fill-opacity:0.94117647"
         id="path2116" />
    </g>
  </g>
</svg>
