<?xml version="1.0" encoding="UTF-8" standalone="no"?>
<svg
   xmlns:dc="http://purl.org/dc/elements/1.1/"
   xmlns:cc="http://creativecommons.org/ns#"
   xmlns:rdf="http://www.w3.org/1999/02/22-rdf-syntax-ns#"
   xmlns:svg="http://www.w3.org/2000/svg"
   xmlns="http://www.w3.org/2000/svg"
   id="svg852"
   version="1.1"
   viewBox="0 0 158.75 158.75"
   height="158.75mm"
   width="158.75mm">
  <defs
     id="defs846" />
  <metadata
     id="metadata849">
    <rdf:RDF>
      <cc:Work
         rdf:about="">
        <dc:format>image/svg+xml</dc:format>
        <dc:type
           rdf:resource="http://purl.org/dc/dcmitype/StillImage" />
        <dc:title></dc:title>
      </cc:Work>
    </rdf:RDF>
  </metadata>
  <g
     id="layer2">
    <path
       id="path2"
       d="M 144.38978,0.52916667 H 14.360226 C 6.4293733,0.52916667 3.3333333e-7,6.9585417 3.3333333e-7,14.889391 V 144.91853 C 3.3333333e-7,152.8498 6.4293733,159.27917 14.360226,159.27917 H 144.38937 c 7.93127,0 14.36063,-6.42937 14.36063,-14.36064 V 14.889391 c 0,-7.9308493 -6.42936,-14.36022433 -14.36022,-14.36022433 z"
       style="fill:#0077b7;stroke-width:0.41557592" />
  </g>
  <g
     transform="translate(-24.94643,-66.056549)"
     id="layer1">
    <rect
       y="95.285789"
       x="39.849781"
       height="100.29031"
       width="128.94469"
       id="rect1400"
       style="opacity:0.98999999;fill:#ffffff;fill-opacity:1;stroke:#000000;stroke-width:2.38786459;stroke-linecap:round;stroke-linejoin:round;stroke-miterlimit:4;stroke-dasharray:none;stroke-dashoffset:0;stroke-opacity:1;paint-order:markers fill stroke" />
    <path
       id="path1402"
       d="m 39.866459,95.285791 64.941061,55.130969 63.98695,-55.130969 v 0"
       style="fill:none;stroke:#000000;stroke-width:2.38786459;stroke-linecap:round;stroke-linejoin:round;stroke-miterlimit:4;stroke-dasharray:none;stroke-opacity:1;paint-order:markers fill stroke" />
    <g
       id="flowRoot1404"
       style="font-style:normal;font-variant:normal;font-weight:normal;font-stretch:normal;font-size:2.66666675px;line-height:1.25;font-family:Prime;-inkscape-font-specification:Prime;letter-spacing:0px;word-spacing:0px;fill:#000000;fill-opacity:1;stroke:none;stroke-linejoin:round"
       transform="matrix(0.23878645,0,0,0.23878645,37.700705,65.475852)"
       aria-label="@">
      <path
         id="path1412"
         style="font-size:192px;stroke-linejoin:round"
         d="m 250.024,468.304 v 4.608 c 0,11.136 9.216,20.16 20.16,20.16 h 67.392 v -74.88 c 0,-13.056 -10.368,-23.616 -23.616,-23.616 h -65.472 c -13.056,0 -23.424,10.56 -23.424,23.616 v 81.216 c 0,12.096 9.984,21.12 23.424,21.12 h 71.424 v -4.992 c 0,-1.92 -1.536,-3.456 -3.456,-3.456 h -68.352 c -7.872,0 -14.208,-6.528 -14.208,-14.208 v -80.448 c 0,-7.872 6.336,-14.208 14.208,-14.208 h 66.24 c 7.872,0 14.592,6.336 14.592,14.208 V 485.2 h -19.968 v -44.16 c 0,-10.944 -9.024,-20.16 -20.352,-20.16 h -31.872 v 4.992 c 0,1.92 1.536,3.456 3.456,3.456 h 28.416 c 6.144,0 11.328,4.8 11.328,11.136 v 6.912 c 0,0.384 -0.384,0.768 -0.768,0.768 h -28.992 c -10.944,0 -20.16,8.832 -20.16,20.16 z m 49.92,16.896 h -29.76 c -6.336,0 -11.136,-5.184 -11.136,-11.136 v -6.528 c 0,-6.144 4.8,-11.328 11.136,-11.328 h 29.76 z" />
    </g>
  </g>
</svg>
