<?xml version="1.0" encoding="UTF-8" standalone="no"?>
<!-- Generator: Adobe Illustrator 19.0.0, SVG Export Plug-In . SVG Version: 6.00 Build 0)  -->

<svg
   xmlns="http://www.w3.org/2000/svg"
   id="Layer_1"
   x="0px"
   y="0px"
   viewBox="0 0 382 382"
   style="enable-background:new 0 0 382 382;"
>
<path
   style="fill:#0077b7;fill-opacity:1"
   d="M 347.445,0 H 34.555 C 15.471,0 0,15.471 0,34.555 V 347.444 C 0,366.529 15.471,382 34.555,382 H 347.444 C 366.529,382 382,366.529 382,347.444 V 34.555 C 382,15.471 366.529,0 347.445,0 Z"
   id="path949" />
<path
   d="m 130.2947,382.12622 c 1.88017,-0.27337 6.47652,-3.32988 8.36002,-5.43768 1.88213,-2.10625 2.82131,-5.17465 2.82131,-9.20388 0,-0.54672 -0.045,-6.7821 -0.12938,-18.6898 -0.0872,-11.9115 -0.12939,-21.34542 -0.12939,-28.30848 l -5.90049,1.10019 c -3.76203,0.73153 -8.50791,1.05397 -14.23767,0.96158 -5.72705,-0.0925 -11.67156,-0.73155 -17.8272,-1.92317 -6.15925,-1.1926 -11.886292,-3.9397 -17.188369,-8.24131 -5.299367,-4.30935 -9.061396,-9.9412 -11.285199,-16.90138 l -2.566125,-6.3249 c -1.709853,-4.20922 -4.401766,-8.88335 -8.079337,-14.0089 -3.677571,-5.13231 -7.396482,-8.61384 -11.158511,-10.44556 l -1.796112,-1.37452 c -1.195906,-0.91539 -2.307353,-2.01944 -3.334343,-3.30058 -1.025192,-1.28501 -1.794312,-2.56903 -2.307357,-3.84731 -0.513045,-1.285 -0.08716,-2.33898 1.282165,-3.16582 1.369319,-0.82297 3.846497,-1.23109 7.439609,-1.23109 l 5.12865,0.82299 c 3.421507,0.73154 7.651658,2.92805 12.699448,6.59441 5.044192,3.66346 9.190794,8.42613 12.440674,14.28708 3.935445,7.51364 8.676839,13.23501 14.237674,17.17474 5.556353,3.94354 11.158513,5.9129 16.801123,5.9129 5.6426,0 10.51607,-0.45816 14.62224,-1.37065 4.10165,-0.91828 7.94995,-2.29567 11.54306,-4.1274 1.53914,-12.27345 5.72976,-21.71411 12.56826,-28.30853 -9.74695,-1.10017 -18.51095,-2.7471 -26.29469,-4.94747 -7.77924,-2.20039 -15.81815,-5.77047 -24.11133,-10.71892 -8.296787,-4.94749 -15.179304,-11.08086 -20.652098,-18.41355 -5.471883,-7.33266 -9.962596,-16.95044 -13.465863,-28.85522 -3.505065,-11.91153 -5.258037,-25.65381 -5.258037,-41.22494 0,-22.16649 6.757634,-41.04013 20.267536,-56.61124 -6.329054,-16.671327 -5.731557,-35.35629 1.794312,-56.060681 4.95973,-1.649806 12.314876,-0.411978 22.06183,3.710617 9.74878,4.125473 16.88648,7.653213 21.42032,10.580319 4.53385,2.928065 8.16651,5.403733 10.90334,7.421247 15.90799,-4.763649 32.32456,-7.144989 49.25414,-7.144989 16.92872,0 33.34795,2.38134 49.25686,7.144989 l 9.74787,-6.595373 c 6.67228,-4.398854 14.53778,-8.429039 23.60277,-12.091527 9.06411,-3.663459 15.98887,-4.672199 20.77969,-3.022405 7.69299,20.704413 8.38123,39.389388 2.04769,56.059733 13.5099,15.57305 20.26932,34.4457 20.26932,56.61221 0,15.57401 -1.75297,29.36249 -5.25804,41.35967 -3.50234,12.00008 -8.0317,21.6217 -13.59434,28.85813 -5.55634,7.23739 -12.48382,13.32454 -20.77699,18.27491 -8.295,4.9446 -16.33301,8.52144 -24.11582,10.71508 -7.78194,2.20039 -16.54505,3.85404 -26.29291,4.95423 8.88709,8.24132 13.33288,21.24535 13.33288,39.01975 V 367.476 c 0,3.11576 0.4241,5.63283 1.27948,7.55694 0.86077,1.92319 2.22648,3.24765 4.10706,3.98592 1.88864,0.73155 3.54819,1.18875 5.00555,1.37067 1.45738,0.18386 3.8517,1.99606 6.58853,1.99606 z"
   id="path8"
   style="fill:#ffffff;fill-opacity:1;stroke-width:0.92997402"/>
   </svg>