<?xml version="1.0" encoding="UTF-8" standalone="no"?>
<!-- Created with Inkscape (http://www.inkscape.org/) -->

<svg
   xmlns:dc="http://purl.org/dc/elements/1.1/"
   xmlns:cc="http://creativecommons.org/ns#"
   xmlns:rdf="http://www.w3.org/1999/02/22-rdf-syntax-ns#"
   xmlns:svg="http://www.w3.org/2000/svg"
   xmlns="http://www.w3.org/2000/svg"
   xmlns:sodipodi="http://sodipodi.sourceforge.net/DTD/sodipodi-0.dtd"
   xmlns:inkscape="http://www.inkscape.org/namespaces/inkscape"
   width="203.55257mm"
   height="26.43185mm"
   viewBox="0 0 203.55257 26.43185"
   version="1.1"
   id="svg8"
   inkscape:version="0.92.4 (33fec40, 2019-01-16)"
   sodipodi:docname="title.svg">
  <defs
     id="defs2" />
  <sodipodi:namedview
     id="base"
     pagecolor="#ffffff"
     bordercolor="#666666"
     borderopacity="1.0"
     inkscape:pageopacity="0.0"
     inkscape:pageshadow="2"
     inkscape:zoom="0.98994949"
     inkscape:cx="442.04277"
     inkscape:cy="13.611483"
     inkscape:document-units="mm"
     inkscape:current-layer="layer1"
     showgrid="false"
     inkscape:window-width="1920"
     inkscape:window-height="1015"
     inkscape:window-x="0"
     inkscape:window-y="0"
     inkscape:window-maximized="1" />
  <metadata
     id="metadata5">
    <rdf:RDF>
      <cc:Work
         rdf:about="">
        <dc:format>image/svg+xml</dc:format>
        <dc:type
           rdf:resource="http://purl.org/dc/dcmitype/StillImage" />
        <dc:title></dc:title>
      </cc:Work>
    </rdf:RDF>
  </metadata>
  <g
     inkscape:label="Layer 1"
     inkscape:groupmode="layer"
     id="layer1"
     transform="translate(-24.807261,-82.925785)">
    <g
       id="g905"
       style="stroke:#fffff0;stroke-opacity:1;fill:#fffff0;fill-opacity:1;stroke-width:1;stroke-miterlimit:4;stroke-dasharray:none">
      <g
         aria-label="Sexy Title Words"
         transform="matrix(7.8140973,0,0,8.5299775,-680.35929,-1999.1344)"
         style="font-style:normal;font-variant:normal;font-weight:normal;font-stretch:normal;font-size:2.66666675px;line-height:1.25;font-family:Prime;-inkscape-font-specification:Prime;letter-spacing:0px;word-spacing:0px;fill:#fffff0;fill-opacity:1;stroke:#fffff0;stroke-width:0.12248606;stroke-miterlimit:4;stroke-dasharray:none;stroke-opacity:1"
         id="flowRoot823">
        <path
           d="m 91.716138,244.7244 c 0,-0.1624 0.131601,-0.294 0.294003,-0.294 h 0.980011 c 0.0168,0 0.0308,-0.014 0.0308,-0.0308 V 244.31 h -1.010811 c -0.243603,0 -0.439605,0.196 -0.439605,0.4396 v 0.34441 c 0,0.0448 0.0336,0.0924 0.0756,0.1064 l 1.260014,0.4172 c 0.0168,0.006 0.0308,0.0224 0.0308,0.0392 v 0.33881 c 0,0.1624 -0.131601,0.294 -0.294003,0.294 h -1.066812 c -0.0168,0 -0.0308,0.014 -0.0308,0.0308 v 0.0896 h 1.097612 c 0.240803,0 0.439605,-0.196 0.439605,-0.4396 v -0.34721 c 0,-0.0448 -0.0364,-0.0924 -0.0784,-0.1064 l -1.260014,-0.4172 c -0.014,-0.003 -0.028,-0.0224 -0.028,-0.0392 z"
           style="font-size:2.80003119px;line-height:30.85000229;letter-spacing:0.20941904px;fill:#fffff0;fill-opacity:1;stroke:#fffff0;stroke-width:0.12248606;stroke-miterlimit:4;stroke-dasharray:none;stroke-opacity:1"
           id="path907" />
        <path
           d="m 93.93878,246.41002 h 0.750409 v -0.0896 c 0,-0.0168 -0.014,-0.0308 -0.0308,-0.0308 H 93.93878 c -0.123201,0 -0.221202,-0.098 -0.221202,-0.2212 v -0.3416 h 0.0028 c 0.014,0.0196 0.0364,0.0336 0.0616,0.0336 h 0.89881 c 0.0168,0 0.0308,-0.014 0.0308,-0.0336 v -0.38081 c 0,-0.21 -0.148402,-0.336 -0.338804,-0.336 H 93.93038 c -0.190402,0 -0.338803,0.126 -0.338803,0.336 v 0.72521 c 0,0.2128 0.154001,0.3388 0.347203,0.3388 z m -0.0084,-1.28521 h 0.442405 c 0.120402,0 0.212803,0.1008 0.212803,0.224 v 0.294 h -0.83721 c -0.0196,-0.003 -0.0308,-0.014 -0.0308,-0.0308 v -0.2632 c 0,-0.1232 0.0924,-0.224 0.212802,-0.224 z"
           style="font-size:2.80003119px;line-height:30.85000229;letter-spacing:0.20941904px;fill:#fffff0;fill-opacity:1;stroke:#fffff0;stroke-width:0.12248606;stroke-miterlimit:4;stroke-dasharray:none;stroke-opacity:1"
           id="path909" />
        <path
           d="m 95.833828,245.70722 c 0.028,-0.014 0.0532,-0.0364 0.0672,-0.0644 l 0.324804,-0.6328 h -0.109201 c -0.0168,0 -0.0336,0.0112 -0.042,0.0252 l -0.296803,0.588 c -0.0056,0.014 -0.0252,0.028 -0.042,0.028 h -0.156802 c -0.0168,0 -0.0364,-0.014 -0.0448,-0.028 l -0.308003,-0.588 c -0.0084,-0.014 -0.0252,-0.0252 -0.042,-0.0252 h -0.109201 l 0.341604,0.6384 c 0.014,0.028 0.0364,0.0504 0.0644,0.0644 -0.028,0.014 -0.0504,0.0364 -0.0644,0.0616 l -0.338804,0.6356 h 0.106401 c 0.0168,0 0.0364,-0.0112 0.042,-0.028 l 0.310803,-0.5852 c 0.0056,-0.0168 0.0252,-0.028 0.042,-0.028 h 0.154002 c 0.0168,0 0.0364,0.0112 0.042,0.028 l 0.299603,0.5852 c 0.0056,0.0168 0.0252,0.028 0.042,0.028 h 0.109201 l -0.327604,-0.6384 c -0.014,-0.028 -0.0364,-0.0504 -0.0644,-0.0644 z"
           style="font-size:2.80003119px;line-height:30.85000229;letter-spacing:0.20941904px;fill:#fffff0;fill-opacity:1;stroke:#fffff0;stroke-width:0.12248606;stroke-miterlimit:4;stroke-dasharray:none;stroke-opacity:1"
           id="path911" />
        <path
           d="m 97.700896,245.01001 h -0.0952 v 1.23201 c 0,0.028 -0.0224,0.0504 -0.0504,0.0504 h -0.574007 c -0.165202,0 -0.218402,-0.1092 -0.218402,-0.2324 v -1.02201 c 0,-0.0168 -0.014,-0.028 -0.0308,-0.028 h -0.0952 v 1.04721 c 0,0.1932 0.109202,0.3528 0.344404,0.3528 l 0.548806,-0.003 c 0.0364,0 0.0644,-0.014 0.0756,-0.0392 v 0.38641 c 0,0.1232 -0.098,0.2212 -0.221202,0.2212 h -0.672008 c -0.014,0 -0.028,0.014 -0.028,0.0308 v 0.0868 h 0.700008 c 0.193202,0 0.347204,-0.1568 0.347204,-0.3528 v -1.70242 c 0,-0.0168 -0.014,-0.028 -0.0308,-0.028 z"
           style="font-size:2.80003119px;line-height:30.85000229;letter-spacing:0.20941904px;fill:#fffff0;fill-opacity:1;stroke:#fffff0;stroke-width:0.12248606;stroke-miterlimit:4;stroke-dasharray:none;stroke-opacity:1"
           id="path913" />
        <path
           d="m 100.02375,244.4304 v 1.97962 h 0.11481 c 0.0168,0 0.0308,-0.014 0.0308,-0.0308 v -1.94882 h 0.644 c 0.0168,0 0.0308,-0.014 0.0308,-0.0308 V 244.31 h -1.458813 c -0.0168,0 -0.0308,0.0112 -0.0308,0.028 v 0.0924 z"
           style="font-size:2.80003119px;line-height:30.85000229;letter-spacing:0.20941904px;fill:#fffff0;fill-opacity:1;stroke:#fffff0;stroke-width:0.12248606;stroke-miterlimit:4;stroke-dasharray:none;stroke-opacity:1"
           id="path915" />
        <path
           d="m 101.26355,244.3884 v 0.1316 c 0,0.0168 0.0112,0.028 0.028,0.028 h 0.098 v -0.1316 c 0,-0.014 -0.0112,-0.028 -0.028,-0.028 z m 0,0.62161 v 1.36921 c 0,0.0168 0.014,0.0308 0.0308,0.0308 h 0.0952 v -1.37201 c 0,-0.0168 -0.014,-0.028 -0.0308,-0.028 z"
           style="font-size:2.80003119px;line-height:30.85000229;letter-spacing:0.20941904px;fill:#fffff0;fill-opacity:1;stroke:#fffff0;stroke-width:0.12248606;stroke-miterlimit:4;stroke-dasharray:none;stroke-opacity:1"
           id="path917" />
        <path
           d="m 102.5874,246.29242 h -0.24921 c -0.1232,0 -0.2212,-0.1008 -0.2212,-0.2212 v -0.94361 h 0.38921 c 0.0168,0 0.0308,-0.014 0.0308,-0.0308 v -0.084 h -0.34161 c -0.0392,0 -0.0756,0.0224 -0.0784,0.0532 v -0.73081 c 0,-0.0168 -0.014,-0.0308 -0.0308,-0.0308 h -0.0952 v 1.75282 c 0,0.196 0.154,0.3528 0.3472,0.3528 h 0.27721 v -0.0868 c 0,-0.0168 -0.014,-0.0308 -0.028,-0.0308 z"
           style="font-size:2.80003119px;line-height:30.85000229;letter-spacing:0.20941904px;fill:#fffff0;fill-opacity:1;stroke:#fffff0;stroke-width:0.12248606;stroke-miterlimit:4;stroke-dasharray:none;stroke-opacity:1"
           id="path919" />
        <path
           d="m 103.07681,246.37922 c 0,0.0168 0.014,0.028 0.0308,0.028 h 0.0952 v -1.95162 c 0,-0.0168 -0.014,-0.0308 -0.0308,-0.0308 h -0.0952 z"
           style="font-size:2.80003119px;line-height:30.85000229;letter-spacing:0.20941904px;fill:#fffff0;fill-opacity:1;stroke:#fffff0;stroke-width:0.12248606;stroke-miterlimit:4;stroke-dasharray:none;stroke-opacity:1"
           id="path921" />
        <path
           d="m 104.10947,246.41002 h 0.75041 v -0.0896 c 0,-0.0168 -0.014,-0.0308 -0.0308,-0.0308 h -0.71961 c -0.1232,0 -0.2212,-0.098 -0.2212,-0.2212 v -0.3416 h 0.003 c 0.014,0.0196 0.0364,0.0336 0.0616,0.0336 h 0.89881 c 0.0168,0 0.0308,-0.014 0.0308,-0.0336 v -0.38081 c 0,-0.21 -0.1484,-0.336 -0.3388,-0.336 h -0.44241 c -0.1904,0 -0.3388,0.126 -0.3388,0.336 v 0.72521 c 0,0.2128 0.154,0.3388 0.3472,0.3388 z m -0.008,-1.28521 h 0.44241 c 0.1204,0 0.2128,0.1008 0.2128,0.224 v 0.294 h -0.83721 c -0.0196,-0.003 -0.0308,-0.014 -0.0308,-0.0308 v -0.2632 c 0,-0.1232 0.0924,-0.224 0.2128,-0.224 z"
           style="font-size:2.80003119px;line-height:30.85000229;letter-spacing:0.20941904px;fill:#fffff0;fill-opacity:1;stroke:#fffff0;stroke-width:0.12248606;stroke-miterlimit:4;stroke-dasharray:none;stroke-opacity:1"
           id="path923" />
        <path
           d="m 108.82918,244.31 c -0.0168,0 -0.0308,0.0112 -0.0308,0.028 v 1.87042 c 0,0.0448 -0.0364,0.0812 -0.0812,0.0812 h -0.82321 c -0.0196,-0.006 -0.0336,-0.0252 -0.0364,-0.0476 V 244.338 c 0,-0.0168 -0.0112,-0.0308 -0.028,-0.028 h -0.1176 v 1.90122 c 0,0.0364 0.0168,0.0672 0.042,0.0784 h -0.68601 c -0.168,0 -0.2968,-0.1204 -0.2968,-0.2828 v -1.66602 c 0,-0.0168 -0.014,-0.0308 -0.0308,-0.0308 h -0.1148 v 1.67162 c 0,0.2408 0.1932,0.4284 0.4424,0.4284 h 1.67442 c 0.112,0 0.2044,-0.0896 0.2044,-0.2016 V 244.31 Z"
           style="font-size:2.80003119px;line-height:30.85000229;letter-spacing:0.20941904px;fill:#fffff0;fill-opacity:1;stroke:#fffff0;stroke-width:0.12248606;stroke-miterlimit:4;stroke-dasharray:none;stroke-opacity:1"
           id="path925" />
        <path
           d="m 109.83385,246.42962 h 0.4228 c 0.1904,0 0.3444,-0.1568 0.3444,-0.35 v -0.73641 c 0,-0.1932 -0.154,-0.3528 -0.3444,-0.3528 h -0.4228 c -0.19321,0 -0.34721,0.1596 -0.34721,0.3528 v 0.73641 c 0,0.1932 0.154,0.35 0.34721,0.35 z m 0,-1.32161 h 0.4228 c 0.1204,0 0.2184,0.1008 0.2184,0.224 v 0.75881 c 0,0.1232 -0.098,0.2212 -0.2184,0.2212 h -0.4228 c -0.12321,0 -0.22121,-0.098 -0.22121,-0.2212 v -0.75881 c 0,-0.1232 0.098,-0.224 0.22121,-0.224 z"
           style="font-size:2.80003119px;line-height:30.85000229;letter-spacing:0.20941904px;fill:#fffff0;fill-opacity:1;stroke:#fffff0;stroke-width:0.12248606;stroke-miterlimit:4;stroke-dasharray:none;stroke-opacity:1"
           id="path927" />
        <path
           d="m 111.14927,245.01001 v 1.40001 h 0.126 v -1.08361 c 0,0 -0.006,-0.2016 0.19041,-0.2016 h 0.3444 c 0.0168,0 0.0308,-0.0112 0.0308,-0.028 v -0.0868 h -0.3192 c -0.19041,0 -0.24641,0.0924 -0.24641,0.0924 v -0.0924 z"
           style="font-size:2.80003119px;line-height:30.85000229;letter-spacing:0.20941904px;fill:#fffff0;fill-opacity:1;stroke:#fffff0;stroke-width:0.12248606;stroke-miterlimit:4;stroke-dasharray:none;stroke-opacity:1"
           id="path929" />
        <path
           d="m 113.28515,244.31 c -0.0168,0 -0.0308,0.014 -0.0308,0.0308 v 0.72241 c -0.003,-0.0308 -0.0392,-0.0532 -0.0784,-0.0532 h -0.54601 c -0.1932,0 -0.3472,0.1568 -0.3472,0.35 v 0.70001 c 0,0.1932 0.154,0.35 0.3472,0.35 h 0.71961 c 0.0168,0 0.0308,-0.014 0.0308,-0.0308 V 244.31 Z m -0.65521,1.98242 c -0.1232,0 -0.2212,-0.098 -0.2212,-0.2212 v -0.72241 c 0,-0.1232 0.098,-0.224 0.2212,-0.224 h 0.57681 c 0.0252,0.003 0.0448,0.0224 0.0476,0.0504 v 1.11721 z"
           style="font-size:2.80003119px;line-height:30.85000229;letter-spacing:0.20941904px;fill:#fffff0;fill-opacity:1;stroke:#fffff0;stroke-width:0.12248606;stroke-miterlimit:4;stroke-dasharray:none;stroke-opacity:1"
           id="path931" />
        <path
           d="m 114.8694,245.92282 v 0.182 c 0,0.1204 -0.1064,0.1876 -0.22681,0.1876 h -0.7224 c -0.0168,0 -0.0308,0.014 -0.0308,0.0308 v 0.0868 h 0.7532 c 0.19041,0 0.34721,-0.112 0.34721,-0.308 v -0.2128 c 0,-0.0448 -0.0336,-0.0924 -0.0756,-0.1064 l -0.86801,-0.31361 c -0.014,-0.006 -0.028,-0.0224 -0.028,-0.0392 v -0.1036 c 0,-0.1232 0.098,-0.2016 0.2212,-0.2016 h 0.61321 c 0.0168,0 0.0308,-0.014 0.0308,-0.0308 v -0.084 h -0.64401 c -0.1932,0 -0.3472,0.1204 -0.3472,0.3136 v 0.14 c 0,0.0448 0.0336,0.0924 0.0756,0.1064 l 0.87361,0.31361 c 0.014,0.003 0.028,0.0224 0.028,0.0392 z"
           style="font-size:2.80003119px;line-height:30.85000229;letter-spacing:0.20941904px;fill:#fffff0;fill-opacity:1;stroke:#fffff0;stroke-width:0.12248606;stroke-miterlimit:4;stroke-dasharray:none;stroke-opacity:1"
           id="path933" />
      </g>
    </g>
  </g>
</svg>
